HIERARCHY
ROOT Hips
{
  OFFSET 45.5101 88.3259 -17.6692
  CHANNELS 6 Xposition Yposition Zposition Zrotation Xrotation Yrotation
  JOINT RightUpLeg
  {
    OFFSET -9 6.86154e-007 -3.19543e-009
    CHANNELS 6 Xposition Yposition Zposition Zrotation Xrotation Yrotation
    JOINT RightLowLeg
    {
      OFFSET 0.575 -51.4311 3.90177
      CHANNELS 6 Xposition Yposition Zposition Zrotation Xrotation Yrotation
      JOINT RightFoot
      {
        OFFSET -7.46079e-007 -43.5882 -3.90177
        CHANNELS 6 Xposition Yposition Zposition Zrotation Xrotation Yrotation
        End Site
        {
          OFFSET 4.66716e-007 -6.93413 15.0046
        }
      }
    }
  }
  JOINT Chest
  {
    OFFSET 1.23234e-007 14.8421 1.27322e-009
    CHANNELS 6 Xposition Yposition Zposition Zrotation Xrotation Yrotation
    JOINT LeftCollar
    {
      OFFSET 6.64893 27.3161 3.27471
      CHANNELS 6 Xposition Yposition Zposition Zrotation Xrotation Yrotation
      JOINT LeftUpArm
      {
        OFFSET 10.8584 2.41798 -0.945791
        CHANNELS 6 Xposition Yposition Zposition Zrotation Xrotation Yrotation
        JOINT LeftLowArm
        {
          OFFSET 3.77631 -24.5904 -1.70468
          CHANNELS 6 Xposition Yposition Zposition Zrotation Xrotation Yrotation
          JOINT LeftHand
          {
            OFFSET 1.01026 -21.1231 1.74131
            CHANNELS 6 Xposition Yposition Zposition Zrotation Xrotation Yrotation
            End Site
            {
              OFFSET 1.17583e-006 -9.81266 -2.89439e-008
            }
          }
        }
      }
    }
    JOINT Neck
    {
      OFFSET 0.51659 29.8236 6.51843
      CHANNELS 6 Xposition Yposition Zposition Zrotation Xrotation Yrotation
      JOINT Head
      {
        OFFSET 1.16803e-007 7.47049 6.44171e-007
        CHANNELS 6 Xposition Yposition Zposition Zrotation Xrotation Yrotation
        End Site
        {
          OFFSET -4.32676e-008 16.2908 2.16786e-007
        }
      }
    }
    JOINT RightCollar
    {
      OFFSET -6.11406 27.2248 4.23427
      CHANNELS 6 Xposition Yposition Zposition Zrotation Xrotation Yrotation
      JOINT RightUpArm
      {
        OFFSET -10.4566 2.3285 -0.910794
        CHANNELS 6 Xposition Yposition Zposition Zrotation Xrotation Yrotation
        JOINT RightLowArm
        {
          OFFSET -3.86856 -25.191 -1.74633
          CHANNELS 6 Xposition Yposition Zposition Zrotation Xrotation Yrotation
          JOINT RightHand
          {
            OFFSET -1.04759 -20.6242 1.75213
            CHANNELS 6 Xposition Yposition Zposition Zrotation Xrotation Yrotation
            End Site
            {
              OFFSET -2.03487e-006 -9.50367 -4.31372e-006
            }
          }
        }
      }
    }
  }
  JOINT LeftUpLeg
  {
    OFFSET 9 -3.38008e-006 -5.22993e-009
    CHANNELS 6 Xposition Yposition Zposition Zrotation Xrotation Yrotation
    JOINT LeftLowLeg
    {
      OFFSET -0.575 -51.431 3.90177
      CHANNELS 6 Xposition Yposition Zposition Zrotation Xrotation Yrotation
      JOINT LeftFoot
      {
        OFFSET 2.13082e-007 -43.5882 -3.90177
        CHANNELS 6 Xposition Yposition Zposition Zrotation Xrotation Yrotation
        End Site
        {
          OFFSET 7.44796e-007 -6.93413 15.0046
        }
      }
    }
  }
}
MOTION
Frames:	5
Frame Time:	0.0333333
45.5101 88.3259 -17.6692 0.317773 -9.21656 -2.47352 -9 6.86154e-007 -3.19543e-009 -14.36 -14.9766 -13.9766 0.575 -51.4311 3.90177 -12.8512 49.814 20.4287 -7.46079e-007 -43.5882 -3.90177 -13.3062 -18.4126 -0.707853 1.23234e-007 14.8421 1.27322e-009 -0.595386 10.6383 -1.5649 6.64893 27.3161 3.27471 -2.94784 5.93879 -4.20517 10.8584 2.41798 -0.945791 42.5084 -68.8885 -7.13295 3.77631 -24.5904 -1.70468 7.53549 -7.02198 -24.0564 1.01026 -21.1231 1.74131 19.3758 -4.94276 2.58954 0.51659 29.8236 6.51843 -2.42356 -4.03431 2.06909 1.16803e-007 7.47049 6.44171e-007 -0.602333 15.8464 1.83258 -6.11406 27.2248 4.23427 -1.96452 7.32629 3.42623 -10.4566 2.3285 -0.910794 -37.8054 -72.802 4.20567 -3.86856 -25.191 -1.74633 -5.83542 -2.61648 49.2692 -1.04759 -20.6242 1.75213 -12.2768 4.09136 -1.16565 9 -3.38008e-006 -5.22993e-009 9.56401 -13.3151 10.6232 -0.575 -51.431 3.90177 -5.88309 52.0469 -12.3113 2.13082e-007 -43.5882 -3.90177 23.0124 -20.3902 1.80192 
45.4728 88.2877 -17.7059 0.284326 -9.23862 -2.54226 -9 6.86154e-007 -3.19543e-009 -14.2786 -15.0379 -13.8931 0.575 -51.4311 3.90177 -12.9134 49.8978 20.4453 -7.46079e-007 -43.5882 -3.90177 -13.3205 -18.4965 -0.717864 1.23234e-007 14.8421 1.27322e-009 -0.632406 10.6562 -1.55247 6.64893 27.3161 3.27471 -2.94784 5.93879 -4.20517 10.8584 2.41798 -0.945791 42.9193 -68.9295 -6.73983 3.77631 -24.5904 -1.70468 7.5414 -6.9895 -24.3156 1.01026 -21.1231 1.74131 19.5464 -4.9109 2.61503 0.51659 29.8236 6.51843 -2.23429 -4.10242 1.97386 1.16803e-007 7.47049 6.44171e-007 -0.871844 15.9579 1.88249 -6.11406 27.2248 4.23427 -1.96452 7.32629 3.42623 -10.4566 2.3285 -0.910794 -37.6482 -72.7854 4.40675 -3.86856 -25.191 -1.74633 -5.81829 -2.6782 49.0971 -1.04759 -20.6242 1.75213 -12.1594 3.97079 -1.16028 9 -3.38008e-006 -5.22993e-009 9.61487 -13.3464 10.6175 -0.575 -51.431 3.90177 -5.8675 52.143 -12.3565 2.13082e-007 -43.5882 -3.90177 23.0174 -20.3918 1.80267 
45.4278 88.29 -17.7301 0.274099 -9.35876 -2.60777 -9 6.86154e-007 -3.19543e-009 -14.1939 -14.9723 -13.7925 0.575 -51.4311 3.90177 -12.9868 49.9048 20.4808 -7.46079e-007 -43.5882 -3.90177 -13.2954 -18.4378 -0.709723 1.23234e-007 14.8421 1.27322e-009 -0.701232 10.835 -1.5769 6.64893 27.3161 3.27471 -2.94784 5.93879 -4.20517 10.8584 2.41798 -0.945791 43.5565 -68.91 -6.27611 3.77631 -24.5904 -1.70468 7.50548 -6.99842 -24.6218 1.01026 -21.1231 1.74131 19.6136 -4.95635 2.63113 0.51659 29.8236 6.51843 -1.98629 -4.24964 1.92097 1.16803e-007 7.47049 6.44171e-007 -1.11312 16.0375 1.98078 -6.11406 27.2248 4.23427 -1.96452 7.32629 3.42623 -10.4566 2.3285 -0.910794 -37.751 -72.8724 5.22322 -3.86856 -25.191 -1.74633 -5.55377 -2.5104 48.1056 -1.04759 -20.6242 1.75213 -12.3041 3.91351 -1.17542 9 -3.38008e-006 -5.22993e-009 9.65043 -13.2166 10.6471 -0.575 -51.431 3.90177 -5.84443 52.1182 -12.294 2.13082e-007 -43.5882 -3.90177 22.9704 -20.3775 1.79567 
45.389 88.2863 -17.7677 0.232707 -9.37733 -2.5887 -9 6.86154e-007 -3.19543e-009 -14.1252 -14.9853 -13.7744 0.575 -51.4311 3.90177 -12.9755 49.9461 20.4499 -7.46079e-007 -43.5882 -3.90177 -13.2904 -18.43 -0.708526 1.23234e-007 14.8421 1.27322e-009 -0.686917 10.8399 -1.71699 6.64893 27.3161 3.27471 -2.94784 5.93879 -4.20517 10.8584 2.41798 -0.945791 43.9438 -68.8465 -5.99803 3.77631 -24.5904 -1.70468 7.45787 -6.9361 -24.8751 1.01026 -21.1231 1.74131 19.4528 -5.01698 2.61027 0.51659 29.8236 6.51843 -2.10064 -4.04769 1.88332 1.16803e-007 7.47049 6.44171e-007 -0.933862 15.7454 1.85521 -6.11406 27.2248 4.23427 -1.96452 7.32629 3.42623 -10.4566 2.3285 -0.910794 -37.3633 -72.9665 5.40141 -3.86856 -25.191 -1.74633 -5.6326 -2.57976 48.4079 -1.04759 -20.6242 1.75213 -12.0587 3.78605 -1.15713 9 -3.38008e-006 -5.22993e-009 9.69304 -13.2509 10.6245 -0.575 -51.431 3.90177 -5.79211 52.16 -12.3255 2.13082e-007 -43.5882 -3.90177 22.9415 -20.3276 1.78278 
45.3624 88.2685 -17.7862 0.22225 -9.43663 -2.50151 -9 6.86154e-007 -3.19543e-009 -14.123 -14.93 -13.8095 0.575 -51.4311 3.90177 -12.9679 50.0019 20.3955 -7.46079e-007 -43.5882 -3.90177 -13.2824 -18.4548 -0.71056 1.23234e-007 14.8421 1.27322e-009 -0.753017 10.827 -1.77367 6.64893 27.3161 3.27471 -2.94784 5.93879 -4.20517 10.8584 2.41798 -0.945791 43.5916 -68.9218 -6.45923 3.77631 -24.5904 -1.70468 7.52453 -7.01542 -24.5538 1.01026 -21.1231 1.74131 19.6205 -4.95329 2.63206 0.51659 29.8236 6.51843 -1.97926 -3.87704 1.74064 1.16803e-007 7.47049 6.44171e-007 -1.1549 15.6973 1.82482 -6.11406 27.2248 4.23427 -1.96452 7.32629 3.42623 -10.4566 2.3285 -0.910794 -37.1696 -72.9329 5.35136 -3.86856 -25.191 -1.74633 -5.67962 -2.61637 48.5757 -1.04759 -20.6242 1.75213 -11.2083 3.26583 -1.09853 9 -3.38008e-006 -5.22993e-009 9.67784 -13.237 10.5382 -0.575 -51.431 3.90177 -5.71949 52.1829 -12.3791 2.13082e-007 -43.5882 -3.90177 22.9962 -20.3709 1.79649 
